<?xml version="1.0" encoding="utf-8"?>
<!-- Generator: Adobe Illustrator 26.0.3, SVG Export Plug-In . SVG Version: 6.00 Build 0)  -->
<svg version="1.0" id="Layer_1" xmlns="http://www.w3.org/2000/svg" xmlns:xlink="http://www.w3.org/1999/xlink" x="0px" y="0px"
	 viewBox="0 0 1006 658" style="enable-background:new 0 0 1006 658;" xml:space="preserve">
<style type="text/css">
	.st0{fill:#424348;}
</style>
<g id="Symbols">
	<g id="Nav-NL-dicht">
		<g id="Logo-CG-positief">
			<g id="Logo-CG">
				<path id="Fill-1" class="st0" d="M283.9,298c-4.7-1-9.5-1.5-14.2-1.4c-7.8,0-26.1,2.7-26.1,27.5v12.8c0,25.5,20,27.5,26.1,27.5
					c4.8,0,9.6-0.4,14.3-1.4c0.9-0.3,2.6-0.8,2.6-2.9v-5.8c0.1-1.4-0.9-2.6-2.3-2.8c-0.1,0-0.3,0-0.5,0h-0.3
					c-1.9,0.2-8.6,0.7-13.8,0.7c-8,0-11.9-5-11.9-15.3V324c0-10.4,3.8-15.3,11.9-15.3c5.2,0,11.8,0.5,13.9,0.7h0.2
					c1.4,0.1,2.6-0.9,2.7-2.3c0-0.1,0-0.3,0-0.5v-5.8C286.6,299.4,285.4,298.2,283.9,298"/>
				<path id="Fill-3" class="st0" d="M308.6,324.5c0-10.8,3.6-15.6,11.6-15.6s11.6,4.8,11.6,15.6v11.7c0,10.8-3.6,15.6-11.6,15.6
					s-11.6-4.8-11.6-15.6V324.5z M320.2,296.5c-16.5,0-25.5,9.9-25.5,28v11.7c0,18,9.1,28,25.5,28s25.5-9.9,25.5-28v-11.7
					C345.7,306.5,336.7,296.5,320.2,296.5z"/>
				<path id="Fill-5" class="st0" d="M391.5,351.9h-15.6c-4.5,0-5.7-1.4-5.7-6.6v-46.1c0-1.5-1.2-2.7-2.6-2.7h-8.4
					c-1.5,0-2.6,1.2-2.6,2.7c0,0,0,0,0,0v46.1c0,16.8,11,18.9,20.5,18.9c4.9,0,9.8-0.4,14.7-1.2c1.5-0.3,2.4-0.9,2.4-2.8v-5.6
					C394.2,353.1,393,351.9,391.5,351.9C391.5,351.9,391.5,351.9,391.5,351.9"/>
				<path id="Fill-7" class="st0" d="M413.4,309.1c1.9-0.1,5.1-0.3,6.7-0.3c8.3,0,12,2.6,12,8.4v0.8c0,6.8-3.1,9.2-12,9.2
					c-1.2,0-4.8-0.1-6.7-0.2V309.1z M434.6,336.4c7.4-3.3,11.2-9.6,11.2-18.3v-0.8c0-13.4-9.1-20.8-25.7-20.8
					c-5.7,0-11.4,0.3-17,1.1c-1.5,0.2-3.5,0.9-3.5,3.6v60.3c0,1.5,1.2,2.7,2.6,2.7c0,0,0,0,0,0h8.6c1.4,0,2.6-1.2,2.6-2.6
					c0,0,0,0,0-0.1v-22.7c0.4,0,0.8,0,1.3,0.1c1.8,0.1,3.9,0.2,5.5,0.2h0.6l12.1,22.9l0.1,0.2c0.4,0.9,1,2.1,2.5,2.1H446
					c1,0.1,1.9-0.7,2-1.8c0-0.1,0-0.2,0-0.2c0-0.4-0.1-0.8-0.3-1.1L434.6,336.4z"/>
				<path id="Fill-9" class="st0" d="M504.3,296.5h-8.9c-1.5,0-2.7,1.1-2.7,2.6c0,0,0,0,0,0.1v39.3c0,10.3-2.8,13.8-11.2,13.8
					s-11.2-3.5-11.2-13.8v-39.3c0-1.5-1.2-2.6-2.7-2.6c0,0,0,0-0.1,0h-8.8c-1.5-0.1-2.7,1.1-2.8,2.6c0,0,0,0,0,0v39.3
					c0,17.1,8.6,25.8,25.5,25.8s25.5-8.6,25.5-25.8v-39.3C507,297.7,505.8,296.5,504.3,296.5C504.3,296.5,504.3,296.5,504.3,296.5"
					/>
				<path id="Fill-11" class="st0" d="M561,296.5h-9.5c-1.2,0.1-2.2,0.9-2.5,2l-10.4,26.4c-0.2,0.4-0.4,0.8-0.6,1.2
					c-0.3-0.3-0.5-0.7-0.7-1.2l-10.4-26.3c-0.3-1.1-1.3-2-2.5-2.1h-9.6c-1.3,0-2.3,0.9-2.3,2.2c0,0,0,0.1,0,0.1
					c0,0.4,0.1,0.7,0.2,1.1l13.1,30.7c1.5,3.4,3.1,5.6,5.2,6.7v24.2c0,1.5,1.1,2.7,2.6,2.7c0,0,0,0,0,0h8.7c1.5,0,2.6-1.2,2.6-2.7
					c0,0,0,0,0-0.1v-24.1c2.1-1.1,3.7-3.2,5.2-6.7l13.2-30.8l0.1-0.1c0.1-0.3,0.2-0.6,0.2-0.9C563.4,297.5,562.4,296.5,561,296.5
					C561.1,296.5,561.1,296.5,561,296.5"/>
				<path id="Fill-13" class="st0" d="M611.8,296.5h-42.9c-1.5,0-2.7,1.1-2.7,2.6c0,0,0,0,0,0v7c0,1.4,1.2,2.6,2.6,2.6
					c0,0,0.1,0,0.1,0h14.4v52.8c0,1.5,1.2,2.7,2.7,2.7c0,0,0,0,0,0h8.7c1.5,0,2.7-1.2,2.7-2.7c0,0,0,0,0,0v-52.8h14.4
					c1.4,0.1,2.6-1,2.7-2.4c0,0,0-0.1,0-0.1v-7C614.6,297.7,613.4,296.5,611.8,296.5C611.9,296.5,611.9,296.5,611.8,296.5"/>
				<path id="Fill-15" class="st0" d="M660.7,297.4c-5.2-0.6-10.4-0.9-15.6-0.9c-6.7,0-22.5,2.8-22.5,28.4v10.8
					c0,18.1,8.2,28.4,22.5,28.4c4.8,0,9.6-0.3,14.3-1l1.2-0.2c1.3-0.2,2.3-1.3,2.3-2.6V331c0.1-1.3-0.9-2.5-2.3-2.6c0,0-0.1,0-0.1,0
					h-0.8c-1.4,0-2.4,1.1-2.4,2.5c0,0,0,0.1,0,0.1v27c-4,0.5-8.1,0.7-12.2,0.6c-11,0-16.8-7.9-16.8-22.9V325
					c0-19,9.2-22.9,16.8-22.9c5.1,0,10.1,0.3,15.1,0.9h0.5c1.1,0.1,2.1-0.6,2.2-1.7c0-0.2,0-0.4,0-0.5v-0.9
					C662.9,298.9,662.6,297.7,660.7,297.4"/>
				<path id="Fill-17" class="st0" d="M679.4,302.4c2.7-0.2,6.9-0.3,10.2-0.3c13.6,0,18.8,3.7,18.8,13.3v0.4
					c0,9.9-4.8,13.3-18.8,13.3h-5.8c-1.7,0-3.3,0-4.5,0V302.4z M699.3,334c10.2-2.1,15-8,15-18.2v-0.4c0-13.2-7.4-18.9-24.6-18.9
					c-3.7,0-10.5,0.2-13.7,0.4c-1.3,0.2-2.3,1.3-2.3,2.6v62c-0.1,1.4,1,2.6,2.4,2.6c0,0,0,0,0,0h0.9c1.4,0,2.5-1.2,2.4-2.6
					c0,0,0,0,0,0v-26.8c2.2,0,7.6,0.1,10.2,0.1h3.2l18.3,28.3c0.5,0.6,1.3,1.1,2.1,1.1h1.1c1.2,0.1,2.3-0.9,2.3-2.1
					c0-0.1,0-0.1,0-0.2c0-0.6-0.2-1.2-0.6-1.8L699.3,334z"/>
				<path id="Fill-19" class="st0" d="M747.6,358.6c-11.4,0-17.2-7.7-17.2-22.9V325c0-15.2,5.8-22.9,17.2-22.9s17.2,7.7,17.2,22.9
					v10.8C764.9,351,759.1,358.7,747.6,358.6 M747.6,296.6c-14.7,0-22.9,10.1-22.9,28.4v10.8c0,18.3,8.1,28.4,22.9,28.4
					s22.8-10.1,22.8-28.4V325C770.5,306.7,762.4,296.6,747.6,296.6"/>
				<path id="Fill-21" class="st0" d="M821.8,296.5h-0.9c-1.4,0.1-2.5,1.2-2.4,2.6c0,0,0,0,0,0v40.4c0,13.2-4.8,19.1-15.7,19.1
					s-15.8-6.1-15.8-19.1v-40.4c0.1-1.4-1-2.6-2.4-2.6h-0.9c-1.4,0-2.5,1.2-2.4,2.6c0,0,0,0,0,0v40.4c0,16.1,7.4,24.6,21.5,24.6
					s21.5-8.5,21.5-24.6v-40.4C824.4,297.8,823.3,296.6,821.8,296.5C821.9,296.5,821.9,296.5,821.8,296.5"/>
				<path id="Fill-23" class="st0" d="M852.5,331.3c-2.7,0-6.2-0.1-8.9-0.3v-28.9c2.4-0.1,5.5-0.2,8.9-0.2
					c13.9,0,19.6,3.9,19.6,13.5v1.5C872.1,327.1,866.4,331.3,852.5,331.3 M852.5,296.5c-3.7,0-8.8,0.3-12.4,0.5
					c-1.3,0.2-2.4,1.3-2.4,2.6v62c0,1.4,1,2.6,2.4,2.6c0,0,0,0,0.1,0h0.9c1.4,0,2.5-1.2,2.5-2.5c0,0,0-0.1,0-0.1v-25.3
					c1.8,0.1,5.3,0.3,8.9,0.3c17.2,0,25.5-6.5,25.5-19.8v-1.5C878,302.9,869.4,296.5,852.5,296.5"/>
				<path id="Fill-26" class="st0" d="M188.1,329c0,8-6.6,14.4-14.5,14.3c-8,0-14.4-6.6-14.3-14.5c0-7.9,6.5-14.3,14.4-14.4
					c1.7,0,3.4,0.3,4.9,0.9l13.2-28.5c-5.7-2.5-11.9-3.8-18.2-3.8c-25.4-0.1-46.1,20.3-46.3,45.7s20.3,46.1,45.7,46.3
					s46.1-20.3,46.3-45.7c0-0.1,0-0.2,0-0.3c0-3.4-0.4-6.9-1.2-10.2h-34.3C186.6,321.5,188.1,325.2,188.1,329"/>
			</g>
		</g>
	</g>
</g>
</svg>
