<?xml version="1.0" encoding="UTF-8"?> <svg xmlns="http://www.w3.org/2000/svg" viewBox="0 0 100 80" fill="none"><g clip-path="url(#a)"><path d="M46.982 11.54c.17 1.943.84 3.795 1.937 5.344-2.25-1.152-4.013-3.975-4.362-7.459C44.112 4.628 46.53.417 49.974.002c.996-.068 1.99.14 2.891.605.9.464 1.677 1.169 2.256 2.048a4.669 4.669 0 0 0-2.73-.529c-3.446.416-5.871 4.617-5.409 9.414Zm3.114 19.149c26.963 0 48.553-20.216 48.256-22.293a.311.311 0 0 0 0-.095c-5.539 8.064-24.939 14.013-47.976 14.013-23.038 0-42.525-5.949-48.1-14.013a.315.315 0 0 0 0 .208c.34 2.597 21.276 22.18 47.82 22.18ZM19.278 77.542c3.242 0 6.469-.47 9.595-1.398l.48-.123-.358-6.326-.741.312a20.842 20.842 0 0 1-7.86 1.756 10.892 10.892 0 0 1-6.062-1.68c-1.409-.96-2.55-2.314-3.306-3.92-5.173-11.33 3.018-18.128 8.67-18.128 2.888.013 5.721.847 8.218 2.417l.977.566.14-1.539.48-5.184-.132 1.445.131-1.445-.454-.15a32.395 32.395 0 0 0-9.865-1.842C7.336 42.303 0 49.857 0 60.243c.733 12.738 10.694 17.299 19.278 17.299Zm43.615-10.925c.55-7.242-6.106-8.829-10.32-10.103-3-.945-4.867-1.568-5.006-3.164a8.592 8.592 0 0 1-.122-.944c-.053-1.888 1.744-4.343 5.364-4.343a15.754 15.754 0 0 1 6.979 1.558l.95.453.463-6.26-.428-.16a26.125 26.125 0 0 0-8.583-1.342c-8.793-.009-14.192 3.664-14.68 10.255.575 6.845 5.739 8.498 9.943 9.924 3.341 1.086 5.025 1.888 5.478 3.956a6.9 6.9 0 0 1-.113 3.343 2.548 2.548 0 0 1-.872 1.123c-.75.548-1.893.878-3.908.878a17.36 17.36 0 0 1-8.723-2.247l-.75-.434-.655 6.817.21.075a32.193 32.193 0 0 0 9.874 1.55c9.29-.01 14.385-3.787 14.934-10.935h-.035Zm7.223-3.683c0 9.282 5.408 14.608 14.829 14.608 9.42 0 14.83-5.316 14.83-14.589V42.907h-9.762v20.915c0 5.439-1.596 7.96-5.016 7.96s-5.024-2.521-5.024-7.96V42.907h-9.831l-.026 20.027Z" fill="#009036"></path><path d="M51.65 17.414a4.831 4.831 0 0 1-2.731-.529 10.891 10.891 0 0 1-1.937-5.344c-.462-4.797 1.963-8.999 5.409-9.386a4.669 4.669 0 0 1 2.73.529 10.76 10.76 0 0 1 1.936 5.335c.463 4.806-1.954 8.98-5.408 9.395Zm46.702-9.017C98.65 10.474 77.06 30.69 50.096 30.69c-26.544 0-47.48-19.584-47.845-22.19.296 2.833 21.476 26.344 48.046 26.344 26.972 0 48.378-24.257 48.055-26.447ZM28.882 50.99l.14-1.54-.14 1.54Zm.515 25.003v.774-.774Zm.13 2.417-.087-1.643v-.774l-.48.123a33.665 33.665 0 0 1-9.595 1.397C10.695 77.542.733 72.982 0 60.263v1.02c0 7.166 2.809 11.935 6.752 14.862.56.417 1.143.798 1.744 1.142 3.342 1.825 7.04 2.754 10.782 2.71a32.77 32.77 0 0 0 4.867-.34 43.98 43.98 0 0 0 4.772-1.048l.61-.198Zm-1.613-27.959c-2.496-1.561-5.326-2.388-8.209-2.398-5.652 0-13.843 6.836-8.67 18.13a2.012 2.012 0 0 0-.114-.369 11.998 11.998 0 0 1-.811-4.513 14.27 14.27 0 0 1 .28-2.833c0-.104 0-.217.069-.321.07-.104 0-.217.07-.33a10.51 10.51 0 0 1 1.09-2.71l.148-.227.21-.34c1.202-1.803 2.943-3.1 4.928-3.673a8.1 8.1 0 0 1 2.8-.397c2.863.022 5.672.852 8.148 2.408h.06l.76.453.209-2.341-.968-.538Zm24.939-2.398c-3.638 0-5.417 2.502-5.365 4.344.024.317.064.632.122.944v-.18c.001-.327.07-.65.201-.944.026-.058.055-.115.087-.17v-.066a.84.84 0 0 1 .131-.18l.052-.065c.046-.052.095-.1.149-.142l.13-.113c.75-.586 2.05-.878 3.97-.944h.488a15.59 15.59 0 0 1 6.979 1.558l.767.368.218-2.417-.95-.454a15.747 15.747 0 0 0-6.988-1.539h.009ZM62.98 67.76c0-.396 0-.774-.052-1.142-.55 7.148-5.644 10.924-14.83 10.924a32.19 32.19 0 0 1-9.891-1.548l-.218-.076-.227 2.38.445.16a31.668 31.668 0 0 0 8.34 1.492h1.534c9.753.047 14.9-4.183 14.9-12.19ZM52.844 69.8c.197-.541.291-1.119.28-1.7a7.967 7.967 0 0 0-.158-1.662c-.453-2.105-2.137-2.832-5.478-3.956-4.204-1.379-9.368-3.078-9.979-9.924-.018.39-.018.78 0 1.171 0 7.931 5.565 9.678 9.997 11.208.654.217 1.256.415 1.805.614l.41.16h.061l.384.16.183.086h.062c.956.296 1.774.97 2.294 1.888.135.343.195.714.174 1.086v.227a3.52 3.52 0 0 1-.279 1.104c.095-.145.177-.3.244-.462Zm47-4.41v-2.436c0 9.272-5.426 14.588-14.83 14.588-9.403 0-14.828-5.325-14.828-14.607v2.455c0 9.282 5.408 14.607 14.829 14.607 9.42 0 14.829-5.325 14.829-14.607Z" fill="#B1C800"></path></g><defs><clipPath id="a"><path fill="#fff" d="M0 0h99.844v80H0z"></path></clipPath></defs></svg> 